<?xml version="1.0" encoding="utf-8"?>
<!-- Generator: Adobe Illustrator 23.0.6, SVG Export Plug-In . SVG Version: 6.00 Build 0)  -->
<svg version="1.1" id="Layer_1" xmlns="http://www.w3.org/2000/svg" xmlns:xlink="http://www.w3.org/1999/xlink" x="0px" y="0px"
	 viewBox="0 0 1080 1080" style="enable-background:new 0 0 1080 1080;" xml:space="preserve">
<style type="text/css">
	.st0{fill:#2C2C2C;}
	.st1{fill:#FFFFFF;}
</style>
<path class="st0" d="M853.6,270.3h-250c-6.3,0-12.1,3.9-14.4,9.8c-2.3,6-0.8,12.7,4,17l49.5,45.5l-49.5,45.5c-4.8,4.3-6.3,11.1-4,17
	c2.3,6,8,9.9,14.4,9.9h250c8.5,0,15.5-7,15.5-15.5V285.8C869,277.1,862.1,270.3,853.6,270.3z"/>
<polygon class="st0" points="368.3,147 220.7,294.5 368.3,294.5 "/>
<path class="st1" d="M557.8,417.1c-7.2-18.5-2.2-40.3,12.9-53.9l22.3-20.6l-22.5-20.8c-14.9-13.4-20-34.8-12.8-53.7
	c7.5-18.8,25.8-31.2,45.8-31.2h195.3v-82.9c0-9.2-7.5-16.8-16.8-16.8H401.8v174.3c0,9.2-7.5,16.8-16.8,16.8H210.9v598
	c0,9.2,7.4,16.8,16.8,16.8h554.3c9.2,0,16.8-7.5,16.8-16.8V448.5H603.6C583.5,448.5,565,435.9,557.8,417.1z"/>
<path class="st0" d="M637.9,703.2c38.8,0,70.3,31.6,70.3,70.3s-31.6,70.3-70.3,70.3c-38.8,0-70.3-31.6-70.3-70.3
	c0-20.5,8.9-38.8,22.8-51.7l-67.7-112.7c-5.7,1.7-11.6,2.7-18,2.7c-6.2,0-12.1-1-18-2.7l-67.5,112.7c13.9,12.9,22.8,31.2,22.8,51.7
	c0,38.8-31.6,70.3-70.3,70.3s-70.3-31.6-70.3-70.3c0-38.8,31.6-70.3,70.3-70.3c6.2,0,12.3,1,18,2.5l67.7-112.7
	c-13.9-12.8-23-31.1-23-51.5c0-38.8,31.6-70.3,70.3-70.3c38.9,0,70.3,31.6,70.3,70.3c0,20.5-8.9,38.8-22.8,51.5l67.7,112.7
	C625.6,704.2,631.7,703.2,637.9,703.2z"/>
</svg>
