<?xml version="1.0" encoding="utf-8"?>
<!-- Generator: Adobe Illustrator 23.0.6, SVG Export Plug-In . SVG Version: 6.00 Build 0)  -->
<svg version="1.1" id="currentIllo" xmlns="http://www.w3.org/2000/svg" xmlns:xlink="http://www.w3.org/1999/xlink" x="0px"
	 y="0px" viewBox="0 0 777.7 613.3" style="enable-background:new 0 0 777.7 613.3;" xml:space="preserve">
<style type="text/css">
	.st0{fill:#FFB8B8;}
	.st1{fill:#FFFFFF;}
	.st2{fill:#3F3D56;}
	.st3{fill:#646FE5;}
	.st4{fill:#E6E6E6;}
	.st5{fill:#2F2E41;}
	.st6{fill:#CCCCCC;}
	.st7{fill:#F2F2F2;}
	.st8{opacity:0.2;enable-background:new    ;}
	.st9{fill:#FCFCFC;}
</style>
<path class="st0" d="M141.8,72.3c-5.5,0.6-9.5,5.6-8.9,11.1c0.1,0.6,0.2,1.2,0.3,1.7l-29.1,20.8l17.3,6.7l25-20.8
	c5.2-1.9,7.9-7.7,6-13C150.8,74.5,146.4,71.8,141.8,72.3L141.8,72.3z"/>
<path class="st1" d="M139.1,103.6L103,139.9c-4.9,4.9-11.5,8-18.4,8.6L40,152.6c-3.3,0.3-6.6-0.7-9.1-2.9
	c-5.1-4.3-5.8-11.8-1.5-16.9c1.7-2.1,4.1-3.5,6.8-4.1l45.5-9.7l41.4-30.6c1.2-0.7,2.6-0.6,3.8,0l11.3,9.2c1.4,0.8,2.1,2.3,1.9,3.9
	C140,102.4,139.6,103.1,139.1,103.6z"/>
<path class="st2" d="M571.5,123.1c0.6-5.1-2.1-10-6.7-12.2L340.3,1.2c-6-2.9-13.2-0.5-16.2,5.6v0l0,0L239.9,179
	c-2.9,6-0.4,13.2,5.6,16.2l224.4,109.7c6,2.9,13.2,0.4,16.2-5.6l84.2-172.2C570.9,125.9,571.3,124.5,571.5,123.1z"/>
<path class="st3" d="M440,505.4H148.8c-7.6,0-13.8-6.2-13.8-13.8V96.2c0-7.6,6.2-13.8,13.8-13.8H440c7.6,0,13.8,6.2,13.8,13.8v395.3
	C453.8,499.2,447.6,505.4,440,505.4z"/>
<circle class="st4" cx="226" cy="181.3" r="19"/>
<path class="st4" d="M197,233.2c2.7,1.5,5.5,2.8,8.4,3.9l0.5,0.2c5.9,2.1,12,3.1,18.2,3.1c1.2,0,2.4,0,3.6-0.1
	c2.7-0.2,5.4-0.5,8.1-1.1c1.5-0.3,2.9-0.7,4.3-1.1c0.3-0.1,0.7-0.2,1-0.3c5.8-1.9,11.2-4.7,16.1-8.3c-0.4-0.7-0.8-1.5-1.3-2.1
	c-5.1-7.8-13.7-12.4-23-12.4h-10c-10.8,0-20.6,6.3-25,16.1C197.6,231.6,197.3,232.4,197,233.2z"/>
<path class="st5" d="M232.5,238.6c-0.6,0-1.3,0.3-1.8,0.6c2.7-0.2,5.3-0.5,8-1.1L232.5,238.6z"/>
<path class="st6" d="M227.2,129.7c-30.7,0-55.6,24.9-55.6,55.6c0,19.9,10.6,38.2,27.8,48.1c2.8,1.6,5.8,3,8.8,4.1l0.5,0.2
	c5.9,2.1,12.1,3.1,18.4,3.1c1.2,0,2.4,0,3.6-0.1c2.8-0.2,5.5-0.5,8.2-1.1c1.5-0.3,3-0.7,4.4-1.1c0.3-0.1,0.7-0.2,1-0.3
	c29.2-9.5,45.1-40.9,35.6-70C272.5,145.2,251.2,129.7,227.2,129.7L227.2,129.7z M259.4,226.9c-4.8,3.7-10.2,6.5-15.9,8.4
	c-0.3,0.1-0.6,0.2-1,0.3c-1.3,0.4-2.7,0.8-4.2,1.1c-2.6,0.6-5.1,0.9-7.8,1.1c-1.1,0.1-2.3,0.1-3.4,0.1c-5.9,0-11.8-1-17.4-3
	l-0.5-0.2c-3-1.1-6-2.5-8.8-4.1c-25-14.7-33.4-47-18.6-72c14.7-25,47-33.4,72-18.6c25,14.7,33.4,47,18.6,72
	C269.1,217.8,264.7,222.8,259.4,226.9L259.4,226.9z"/>
<path class="st7" d="M153.5,351.6"/>
<path class="st6" d="M440,505.4H148.8c-7.6,0-13.8-6.2-13.8-13.8V96.2c0-7.6,6.2-13.8,13.8-13.8H440c7.6,0,13.8,6.2,13.8,13.8v395.3
	C453.8,499.2,447.6,505.4,440,505.4z M148.8,84c-6.7,0-12.2,5.5-12.2,12.2v395.3c0,6.7,5.5,12.2,12.2,12.2H440
	c6.7,0,12.2-5.5,12.2-12.2V96.2c0-6.7-5.5-12.2-12.2-12.2L148.8,84z"/>
<path class="st4" d="M383.6,185.1h-82.4c-3.6,0-6.5-2.9-6.5-6.5c0-3.6,2.9-6.5,6.5-6.5c0,0,0,0,0,0h82.4c3.6,0,6.5,2.9,6.5,6.5
	C390.1,182.2,387.2,185.1,383.6,185.1C383.6,185.1,383.6,185.1,383.6,185.1z"/>
<path class="st4" d="M410.5,207.1H301.2c-3.6,0-6.5-2.9-6.5-6.5c0-3.6,2.9-6.5,6.5-6.5c0,0,0,0,0,0h109.3c3.6,0,6.5,2.9,6.5,6.5
	C417,204.2,414.1,207.1,410.5,207.1z"/>
<path class="st4" d="M383.5,291.5H178.3c-3.6,0-6.5-2.9-6.5-6.5c0-3.6,2.9-6.5,6.5-6.5c0,0,0,0,0,0h205.2c3.6,0,6.5,2.9,6.5,6.5
	C390,288.5,387.1,291.5,383.5,291.5C383.5,291.5,383.5,291.5,383.5,291.5z"/>
<path class="st4" d="M410.4,313.5H178.3c-3.6,0-6.5-2.9-6.5-6.5c0-3.6,2.9-6.5,6.5-6.5c0,0,0,0,0,0h232.1c3.6,0,6.5,2.9,6.5,6.5
	C416.9,310.6,414,313.5,410.4,313.5z"/>
<path class="st4" d="M383.5,364H178.3c-3.6,0-6.5-2.9-6.5-6.5c0-3.6,2.9-6.5,6.5-6.5c0,0,0,0,0,0h205.2c3.6,0,6.5,2.9,6.5,6.5
	C390,361.1,387.1,364,383.5,364C383.5,364,383.5,364,383.5,364z"/>
<path class="st4" d="M410.4,386H178.3c-3.6,0-6.5-2.9-6.5-6.5c0-3.6,2.9-6.5,6.5-6.5h232.1c3.6,0,6.5,2.9,6.5,6.5
	C416.9,383.1,414,386,410.4,386C410.4,386,410.4,386,410.4,386z"/>
<path class="st4" d="M383.5,436.6H178.3c-3.6,0-6.5-2.9-6.5-6.5c0-3.6,2.9-6.5,6.5-6.5h205.2c3.6,0,6.5,2.9,6.5,6.5
	C390,433.7,387.1,436.6,383.5,436.6C383.5,436.6,383.5,436.6,383.5,436.6z"/>
<path class="st4" d="M410.4,458.6H178.3c-3.6,0-6.5-2.9-6.5-6.5c0-3.6,2.9-6.5,6.5-6.5h232.1c3.6,0,6.5,2.9,6.5,6.5
	C416.9,455.7,414,458.6,410.4,458.6z"/>
<path class="st1" d="M561.5,236.1c0.6-5.1-2.1-10-6.7-12.2L330.3,114.2c-6-2.9-13.2-0.5-16.2,5.6l0,0l0,0L229.9,292
	c-2.9,6-0.4,13.2,5.6,16.2l224.4,109.7c6,2.9,13.2,0.4,16.2-5.6l84.2-172.2C560.9,238.9,561.3,237.5,561.5,236.1z"/>
<path class="st2" d="M561.5,236.1c0.6-5.1-2.1-10-6.7-12.2L330.3,114.2c-6-2.9-13.2-0.5-16.2,5.6l0,0l0,0L229.9,292
	c-2.9,6-0.4,13.2,5.6,16.2l224.4,109.7c6,2.9,13.2,0.4,16.2-5.6l84.2-172.2C560.9,238.9,561.3,237.5,561.5,236.1z M474.9,411.7
	c-2.6,5.3-9,7.5-14.3,4.9L236.1,306.9c-5.3-2.6-7.5-9-4.9-14.3l84.2-172.2c2.6-5.3,9-7.5,14.3-4.9l224.4,109.7
	c5.3,2.6,7.5,9,4.9,14.3L474.9,411.7z"/>
<path class="st4" d="M537,244l-58.8,120.3c-0.8,1.7-2.8,2.4-4.5,1.5h0L269.6,266c-0.1-0.1-0.3-0.2-0.4-0.2c-1.4-0.9-1.9-2.8-1.1-4.3
	l58.8-120.3c0.8-1.7,2.8-2.4,4.5-1.5l0,0l204.2,99.8C537.1,240.3,537.8,242.3,537,244L537,244L537,244z"/>
<circle class="st3" cx="357.8" cy="208.3" r="29.6"/>
<path class="st2" d="M401.1,330.9l-130.3-63.7c-0.2-0.1-0.3-0.2-0.5-0.3l113.8-76.6c2.2-1.5,5.2-0.9,6.7,1.2
	c0.5,0.7,0.8,1.6,0.8,2.4l6.3,91.9l0.3,4.4L401.1,330.9z"/>
<polygon class="st8" points="401,330.9 356.6,309.1 393.9,288.1 396.6,286.5 397.9,285.8 398.2,290.2 "/>
<path class="st2" d="M473.6,366.3l-112.7-55.1l37.3-21l2.7-1.5l48.7-27.4c3.2-1.8,7.8,0.2,8.8,3.7c0.1,0.2,0.1,0.5,0.2,0.7
	L473.6,366.3z"/>
<polygon class="st0" points="125.8,376.8 138.1,376.8 143.9,329.5 125.8,329.5 "/>
<path class="st5" d="M122.7,372.8l24.1,0h0c8.5,0,15.4,6.9,15.4,15.4c0,0,0,0,0,0v0.5l-39.5,0L122.7,372.8z"/>
<polygon class="st0" points="30.6,369 43.3,371.5 58.9,323.7 40.1,320 "/>
<path class="st5" d="M28.1,364.2l25,4.9l0,0c8.8,1.7,14.5,10.3,12.8,19.1c0,0,0,0,0,0l-0.1,0.5l-41-8L28.1,364.2z"/>
<path class="st0" d="M143.7,213.7c-1.6-5.3-7.2-8.4-12.5-6.8c-0.6,0.2-1.1,0.4-1.7,0.6l-25.6-25l-3.5,18.2l24.8,20.9
	c2.8,4.8,9,6.4,13.8,3.6C143.1,223,145,218.2,143.7,213.7L143.7,213.7z"/>
<circle class="st0" cx="48.9" cy="60.6" r="24.6"/>
<path class="st9" d="M43.7,85.5c1.3,0.6,4-9.8,2.8-11.9c-1.8-3.1-1.7-3.1-2.9-5.1s-1.4-4.8,0.1-6.6s5.1-1.6,5.8,0.7
	c-0.4-4.3,3.8-7.7,8-8.7s8.6-0.4,12.9-1.2c4.9-1,10-5.1,8-10.5c-0.3-0.9-0.8-1.7-1.5-2.4c-2.3-2.5-5.4-3.6-8.5-4.7
	c-6.4-2.2-13-4.4-19.8-4.2c-11.4,0.6-21.4,7.9-25.4,18.6c-0.5,1.3-0.8,2.7-1.1,4C19.7,66,27,78.3,38.8,83.1L43.7,85.5z"/>
<path class="st3" d="M37.7,220.4c-1.3-0.8-2-2.2-1.8-3.7l-11.1-54.9l-11.2-42.1h0c-2.5-9.5,1.8-19.5,10.6-24.1l7.4-7l16.2,7l7.7,7.8
	c11.2,5.4,19.5,15.3,23,27.3l12.3,42.3l28.5,42.4c1,1.5,0.8,3.4-0.4,4.7C115,224.3,37.7,220.4,37.7,220.4z"/>
<path class="st1" d="M112.4,216.5l-42.1-29.1c-5.7-4-9.9-9.9-11.7-16.6l-11.8-43.2c-0.9-3.2-0.4-6.6,1.2-9.5
	c3.3-5.7,10.6-7.7,16.4-4.4c2.4,1.3,4.2,3.5,5.2,6l17.5,43.1l37.4,35.4c0.9,1,1.1,2.5,0.6,3.7l-7.1,12.7c-0.5,1.5-1.9,2.5-3.5,2.5
	C113.7,217.2,113,217,112.4,216.5z"/>
<path class="st1" d="M526.5,594.3H33c-18.2,0-33-14.8-33-33v-271c0-18.2,14.8-33,33-33h60.5c8.2,0,16.1,3.1,22.2,8.6l65.6,46.9
	c4.3,3.9,9.9,6.1,15.7,6.1h332.6c18.2,0,33,14.8,33,33c0,0.2,0,0.3,0,0.5l-3.1,209.5C559.1,579.8,544.5,594.2,526.5,594.3z"/>
<path class="st1" d="M25,361.7c-0.7-1-0.9-2.3-0.4-3.4L44,287.6l1.4-69.3l65.5-4.5l0.3,0l19.7,35.7c6.2,11.2,10,23.5,11.1,36.2
	l6.5,71.2c0.2,2-1.2,3.8-3.3,4.1l-19.7,1.9c-2,0.2-3.8-1.1-4.1-3.1l-8-72.4l-28.8-48.7L75,290l-20.1,70.9c-0.5,1.4-1.9,2.4-3.5,2.4
	l-23.4,0C26.9,363.3,25.7,362.7,25,361.7z"/>
<path class="st3" d="M283.4,446l-1.3-1.3c-0.6-0.5-0.6-1.4-0.1-1.9c0,0,0,0,0.1-0.1l11.2-11.2c0.5-0.6,1.4-0.6,1.9-0.1l0,0
	c0,0,0,0,0.1,0.1l11.2,11.2c0.6,0.5,0.6,1.4,0,2l0,0l0,0l-1.3,1.3c-0.5,0.6-1.4,0.6-2,0l0,0l0,0l-6.6-7v16.6c0,0.8-0.6,1.4-1.4,1.4
	c0,0,0,0,0,0l0,0h-1.9c-0.8,0-1.4-0.6-1.4-1.4l0,0l0,0V439l-6.6,7C284.9,446.6,284,446.6,283.4,446L283.4,446L283.4,446z"/>
<polygon class="st0" points="705.3,599.6 693,599.6 687.2,552.3 705.3,552.3 "/>
<path class="st0" d="M665,453.4c3.5-4.1,3.6-10.1,0.3-14.3c-0.3-0.4-0.7-0.8-1.1-1.1l9.2-34.1L658,409l-6.4,31.6
	c-2.2,4-1.8,8.9,1,12.4c2.6,3.5,7.6,4.2,11.1,1.5C664.2,454.2,664.6,453.8,665,453.4z"/>
<path class="st3" d="M664.4,432.4c-0.2,0-0.4,0-0.6,0l-8-1.2c-1.3-0.2-2.4-1-3-2.1c-0.7-1.2-0.9-2.5-0.7-3.9l10-55.9l-6.8-35.9
	c-1.3-6.9,2.1-13.9,7.9-16.2c3.5-1.4,7.5-0.9,10.5,1.3c3.2,2.5,5.3,6.2,5.6,10.2l4.8,45.8l-0.1,0.2L668.5,429
	C668.1,430.9,666.4,432.3,664.4,432.4z"/>
<polygon class="st0" points="568.3,599.6 556,599.6 552.2,552.3 568.3,552.3 "/>
<path class="st1" d="M547.7,588L547.7,588c-2.8-0.5-4.5-3.2-4-5.9c0-0.1,0-0.1,0-0.2l29.7-130c4.9-20.6,11.6-40.7,20.1-60.1
	l12.7-28.9l47.2,21.6l6.7,12.3c5.3,13.7,8,28.3,8,43l48,140.6c0.9,2.6-0.5,5.5-3.1,6.3c-0.3,0.1-0.5,0.2-0.8,0.2l-26.3-0.3
	c-0.2,0-0.5,0.1-0.8,0.1c-2,0-3.9-1.2-4.6-3.1l-54.9-142.2c-0.2-0.4-0.5-0.6-1-0.6c-0.4,0-0.8,0.3-0.9,0.7l-52,142.9
	c-0.8,2.3-3.2,3.7-5.6,3.2L547.7,588z"/>
<path class="st2" d="M294.4,421.3c12.6,0,22.8,10.2,22.8,22.8c0,12.6-10.2,22.8-22.8,22.8c-12.6,0-22.8-10.2-22.8-22.8l0,0l0,0
	C271.6,431.5,281.8,421.3,294.4,421.3 M294.4,418.3c-14.2,0-25.8,11.5-25.8,25.8s11.5,25.8,25.8,25.8c14.2,0,25.8-11.5,25.8-25.8
	c0,0,0,0,0,0l0,0C320.1,429.8,308.6,418.3,294.4,418.3z"/>
<path class="st3" d="M526.5,594.3H33c-18.2,0-33-14.8-33-33v-271c0-18.2,14.8-33,33-33h60.5c8.2,0,16.1,3.1,22.2,8.6l65.6,46.9
	c4.3,3.9,9.9,6.1,15.7,6.1h332.6c18.2,0,33,14.8,33,33c0,0.2,0,0.3,0,0.5l-3.1,209.5C559.1,579.8,544.5,594.2,526.5,594.3z
	 M33,259.3c-17.1,0-31,13.9-31,31v271c0,17.1,13.9,31,31,31h493.5c16.9-0.1,30.7-13.6,31-30.5l3.1-209.5
	c0.3-17.1-13.4-31.2-30.5-31.4c-0.2,0-0.3,0-0.5,0H197c-6.3,0-12.3-2.3-17-6.6l-65.6-46.9c-5.7-5.2-13.2-8.1-20.9-8.1H33z"/>
<path class="st3" d="M571.4,611.4l-39.5,0v-0.5c0-8.5,6.9-15.4,15.4-15.4c0,0,0,0,0,0h0l24.1,0L571.4,611.4z"/>
<path class="st3" d="M708.4,611.4l-39.5,0v-0.5c0-8.5,6.9-15.4,15.4-15.4c0,0,0,0,0,0h0l24.1,0L708.4,611.4z"/>
<circle class="st0" cx="662" cy="272.8" r="24.6"/>
<path class="st3" d="M649.4,387c-0.6,0-1.2-0.1-1.8-0.3l-38.8-14.9c-2.2-0.8-3.5-3-3.2-5.3l1.6-11.7c-1.9-8.4,0.5-17.2,6.2-23.6
	l0.9-1l11.5-20.9c3.3-5.9,10.7-8.1,16.6-4.9c0,0,0.1,0,0.1,0l20.3,11.3c2.7,1.5,4.7,3.9,5.7,6.8c2.7,8.2,2.5,17.1-0.6,25.2
	l-13.9,36.1C653.4,385.7,651.5,387,649.4,387z"/>
<path class="st0" d="M583.6,428c5.2-1.9,8-7.6,6.1-12.8c-0.2-0.6-0.4-1.1-0.7-1.6l23.5-26.9l-18.4-2.5l-19.5,25.9
	c-4.7,3.1-5.9,9.4-2.9,14C574.3,428,579.2,429.6,583.6,428L583.6,428z"/>
<path class="st3" d="M594.7,409.1c-0.8,0-1.6-0.2-2.3-0.6l-8.3-4.4c-2.4-1.3-3.4-4.3-2.1-6.8c0.1-0.1,0.1-0.2,0.2-0.3l30.6-48.2
	l5.3-36.4c1.1-7.7,8.2-13,15.9-11.9c7.7,1.1,13,8.2,11.9,15.9c-0.1,0.4-0.1,0.9-0.3,1.3l-10.9,44.8l-36.1,44.6
	C597.6,408.4,596.2,409.1,594.7,409.1z"/>
<path class="st1" d="M639.9,252.6c2.8-9.3,19.3-13.5,32.9-9.6s23.4,14,25.7,23.9c5.1,21.9-21.3,39.8-16.5,61.7
	c3.2,14.5,21.4,28.2,42,31.6c-22.7,4.7-50.4,0.6-71.4-10.8c-13.1-7.1-24.1-17.7-23.9-28.4c0.1-6.5,4.2-12.2,9.3-17.2
	s11.1-9.4,15.8-14.6s7.9-11.4,6.5-18c-1.4-6.6-8.2-13.4-17.5-15.4L639.9,252.6z"/>
</svg>
